<svg width="85" height="85" viewBox="0 0 85 85" fill="none" xmlns="http://www.w3.org/2000/svg">
<path d="M56.6666 74.375V17.7083C56.6666 15.8297 55.9203 14.028 54.5919 12.6997C53.2635 11.3713 51.4619 10.625 49.5833 10.625H35.4166C33.538 10.625 31.7363 11.3713 30.4079 12.6997C29.0795 14.028 28.3333 15.8297 28.3333 17.7083V74.375M14.1666 24.7917H70.8332C74.7453 24.7917 77.9166 27.963 77.9166 31.875V67.2917C77.9166 71.2037 74.7453 74.375 70.8332 74.375H14.1666C10.2546 74.375 7.08325 71.2037 7.08325 67.2917V31.875C7.08325 27.963 10.2546 24.7917 14.1666 24.7917Z" stroke="#A7D02D" stroke-width="4" stroke-linecap="round" stroke-linejoin="round"/>
</svg>
