<svg width="85" height="85" viewBox="0 0 85 85" fill="none" xmlns="http://www.w3.org/2000/svg">
<path d="M60.2084 74.375V67.2917C60.2084 63.5344 58.7159 59.9311 56.0591 57.2743C53.4023 54.6176 49.799 53.125 46.0418 53.125H17.7084C13.9512 53.125 10.3478 54.6176 7.69107 57.2743C5.0343 59.9311 3.54175 63.5344 3.54175 67.2917V74.375M81.4584 74.375V67.2917C81.4561 64.1528 80.4113 61.1036 78.4883 58.6228C76.5652 56.142 73.8726 54.3701 70.8334 53.5854M56.6668 11.0854C59.7141 11.8656 62.415 13.6379 64.3438 16.1228C66.2726 18.6076 67.3195 21.6638 67.3195 24.8094C67.3195 27.955 66.2726 31.0111 64.3438 33.496C62.415 35.9808 59.7141 37.7531 56.6668 38.5333M46.0418 24.7917C46.0418 32.6157 39.6991 38.9583 31.8751 38.9583C24.051 38.9583 17.7084 32.6157 17.7084 24.7917C17.7084 16.9676 24.051 10.625 31.8751 10.625C39.6991 10.625 46.0418 16.9676 46.0418 24.7917Z" stroke="#A7D02D" stroke-width="4" stroke-linecap="round" stroke-linejoin="round"/>
</svg>
