<svg width="87" height="87" viewBox="0 0 87 87" fill="none" xmlns="http://www.w3.org/2000/svg">
<path d="M58 76.125V68.875C58 65.0294 56.4723 61.3412 53.753 58.622C51.0338 55.9027 47.3456 54.375 43.5 54.375H18.125C14.2794 54.375 10.5912 55.9027 7.87195 58.622C5.15267 61.3412 3.625 65.0294 3.625 68.875V76.125M72.5 29V50.75M83.375 39.875H61.625M45.3125 25.375C45.3125 33.3831 38.8206 39.875 30.8125 39.875C22.8044 39.875 16.3125 33.3831 16.3125 25.375C16.3125 17.3669 22.8044 10.875 30.8125 10.875C38.8206 10.875 45.3125 17.3669 45.3125 25.375Z" stroke="#A7D02D" stroke-width="4" stroke-linecap="round" stroke-linejoin="round"/>
</svg>
